<svg viewBox="0 0 400 260" xmlns="http://www.w3.org/2000/svg">
  <defs>
    <linearGradient id="g1" x1="0" y1="0" x2="1" y2="1">
      <stop offset="0%" stop-color="#181c22"/>
      <stop offset="100%" stop-color="#0b0e12"/>
    </linearGradient>
    <style>
      .tr { stroke:#c9952a; stroke-width:1.4; fill:none; opacity:0.75; }
      .tr2 { stroke:rgba(255,255,255,0.25); stroke-width:1; fill:none; }
      .pad { fill:#c9952a; opacity:0.85; }
    </style>
  </defs>
  <rect width="400" height="260" fill="url(#g1)"/>
  <path class="tr" d="M20 40 H120 L140 60 V120 H200"/>
  <path class="tr" d="M20 200 H90 L110 180 H220 L240 160 H340"/>
  <path class="tr2" d="M60 20 V80 H160 V140"/>
  <path class="tr2" d="M300 30 V100 H240 L220 120"/>
  <path class="tr" d="M380 200 H300 L280 220 H180"/>
  <path class="tr2" d="M340 40 V90 H380"/>
  <circle class="pad" cx="200" cy="120" r="3.5"/>
  <circle class="pad" cx="140" cy="60" r="3.5"/>
  <circle class="pad" cx="220" cy="120" r="3.5"/>
  <circle class="pad" cx="240" cy="160" r="3.5"/>
  <circle class="pad" cx="110" cy="180" r="3.5"/>
  <circle class="pad" cx="280" cy="220" r="3.5"/>
  <rect x="230" y="70" width="34" height="34" rx="3" fill="none" stroke="#c9952a" stroke-width="1.2" opacity="0.6"/>
  <rect x="238" y="78" width="18" height="18" rx="1.5" fill="#c9952a" opacity="0.2"/>
</svg>
