<svg viewBox="0 0 400 260" xmlns="http://www.w3.org/2000/svg">
  <defs>
    <linearGradient id="g2" x1="0" y1="0" x2="1" y2="1">
      <stop offset="0%" stop-color="#181c22"/>
      <stop offset="100%" stop-color="#0b0e12"/>
    </linearGradient>
    <style>
      .ln { stroke:rgba(255,255,255,0.22); stroke-width:1.2; }
      .lng { stroke:#c9952a; stroke-width:1.4; opacity:0.7; }
      .node { fill:#0b0e12; stroke:#c9952a; stroke-width:1.4; }
      .nodef { fill:rgba(255,255,255,0.15); stroke:rgba(255,255,255,0.3); stroke-width:1.2; }
    </style>
  </defs>
  <rect width="400" height="260" fill="url(#g2)"/>
  <line class="ln" x1="70" y1="80" x2="150" y2="130"/>
  <line class="ln" x1="70" y1="180" x2="150" y2="130"/>
  <line class="lng" x1="150" y1="130" x2="200" y2="130" stroke-dasharray="4 6"/>
  <line class="ln" x1="250" y1="90" x2="320" y2="60"/>
  <line class="ln" x1="250" y1="90" x2="320" y2="120"/>
  <line class="ln" x1="250" y1="170" x2="320" y2="200"/>
  <line class="ln" x1="250" y1="90" x2="250" y2="170"/>
  <circle class="node" cx="70" cy="80" r="9"/>
  <circle class="node" cx="70" cy="180" r="9"/>
  <circle class="node" cx="150" cy="130" r="11"/>
  <circle class="nodef" cx="250" cy="90" r="9"/>
  <circle class="nodef" cx="250" cy="170" r="9"/>
  <circle class="nodef" cx="320" cy="60" r="7"/>
  <circle class="nodef" cx="320" cy="120" r="7"/>
  <circle class="nodef" cx="320" cy="200" r="7"/>
  <g transform="translate(200,130)">
    <line x1="-9" y1="-9" x2="9" y2="9" stroke="#c9952a" stroke-width="2.4"/>
    <line x1="9" y1="-9" x2="-9" y2="9" stroke="#c9952a" stroke-width="2.4"/>
  </g>
</svg>
